Coordinates
version=1
nRows=36
nColumns=38
inDegrees=no

Units are S.I. units (second, meters, Newtons, ...)
If the header above contains a line with 'inDegrees', this indicates whether rotational values are in degrees (yes) or radians (no).

endheader
time	pelvis_tilt	pelvis_list	pelvis_rotation	pelvis_tx	pelvis_ty	pelvis_tz	hip_flexion_r	hip_adduction_r	hip_rotation_r	knee_angle_r	ankle_angle_r	subtalar_angle_r	mtp_angle_r	hip_flexion_l	hip_adduction_l	hip_rotation_l	knee_angle_l	ankle_angle_l	subtalar_angle_l	mtp_angle_l	lumbar_extension	lumbar_bending	lumbar_rotation	arm_flex_r	arm_add_r	arm_rot_r	elbow_flex_r	pro_sup_r	wrist_flex_r	wrist_dev_r	arm_flex_l	arm_add_l	arm_rot_l	elbow_flex_l	pro_sup_l	wrist_flex_l	wrist_dev_l
5	1.33642	1.42865	0.208346	0.751219	1.10262	0.975071	0.172307	0.151968	-0.188488	0.314371	0.102993	0	0	0.134257	-0.171711	-0.137005	0.786062	0.210206	0	0	-0.184923	0.179501	0.106092	0.469674	-0.173265	0.156445	1.50815	1.5708	0	0	0.780514	-0.320358	0.576869	1.08816	1.5708	0	0
5.01	1.328	1.43127	0.210818	0.751899	1.10813	0.975429	0.16411	0.150397	-0.183544	0.310145	0.104108	0	0	0.143993	-0.16671	-0.134709	0.76326	0.2161	0	0	-0.187319	0.175582	0.111562	0.474888	-0.173038	0.161186	1.50371	1.5708	0	0	0.784832	-0.32013	0.577398	1.08169	1.5708	0	0
5.02	1.31615	1.43386	0.21645	0.752562	1.11358	0.975723	0.156731	0.148583	-0.178529	0.306584	0.106013	0	0	0.153899	-0.161767	-0.132691	0.738926	0.220334	0	0	-0.189381	0.171446	0.117399	0.480164	-0.172224	0.165152	1.49936	1.5708	0	0	0.789552	-0.319891	0.578604	1.07506	1.5708	0	0
5.03	1.29987	1.43623	0.226428	0.753194	1.11896	0.975948	0.150419	0.146695	-0.17281	0.303803	0.108601	0	0	0.164215	-0.157052	-0.130927	0.713277	0.222642	0	0	-0.190987	0.167321	0.123476	0.485303	-0.170961	0.168098	1.49548	1.5708	0	0	0.794537	-0.319579	0.57986	1.06819	1.5708	0	0
5.04	1.28029	1.43854	0.240074	0.753737	1.12422	0.976123	0.145025	0.144437	-0.167468	0.301679	0.111397	0	0	0.175212	-0.152521	-0.12942	0.687169	0.223104	0	0	-0.192555	0.16312	0.129395	0.490546	-0.169679	0.170604	1.49194	1.5708	0	0	0.800034	-0.319294	0.581571	1.06133	1.5708	0	0
5.05	1.25827	1.44083	0.256747	0.7542	1.12935	0.976241	0.140307	0.141875	-0.163016	0.30003	0.114617	0	0	0.186884	-0.148189	-0.1281	0.661122	0.22191	0	0	-0.194153	0.158796	0.13477	0.495823	-0.168104	0.172639	1.48863	1.5708	0	0	0.80588	-0.319402	0.583986	1.05522	1.5708	0	0
5.06	1.23311	1.44271	0.277071	0.754622	1.13446	0.976292	0.136432	0.139397	-0.158961	0.298975	0.117834	0	0	0.198997	-0.144165	-0.126042	0.634876	0.21943	0	0	-0.19531	0.154661	0.139594	0.500695	-0.1661	0.173875	1.48583	1.5708	0	0	0.811625	-0.319968	0.586596	1.05005	1.5708	0	0
5.07	1.2089	1.44425	0.296663	0.754999	1.13958	0.976297	0.132514	0.137139	-0.154798	0.298037	0.121055	0	0	0.211096	-0.14088	-0.125024	0.608866	0.21606	0	0	-0.196505	0.150822	0.14419	0.505275	-0.164003	0.175044	1.48345	1.5708	0	0	0.81707	-0.3207	0.588237	1.04535	1.5708	0	0
5.08	1.1874	1.44554	0.313744	0.755309	1.14474	0.976262	0.128374	0.135041	-0.150679	0.297301	0.12439	0	0	0.223019	-0.138282	-0.125468	0.583351	0.212652	0	0	-0.197978	0.147374	0.148614	0.509778	-0.162239	0.177063	1.48128	1.5708	0	0	0.822538	-0.321564	0.589985	1.04082	1.5708	0	0
5.09	1.16802	1.44659	0.328981	0.755538	1.14992	0.976177	0.123972	0.133132	-0.146976	0.29667	0.12815	0	0	0.234756	-0.13623	-0.126685	0.558258	0.209127	0	0	-0.199648	0.144294	0.152552	0.514399	-0.160574	0.179669	1.47908	1.5708	0	0	0.827927	-0.322693	0.591952	1.03719	1.5708	0	0
5.1	1.14969	1.44707	0.343685	0.755687	1.15515	0.976012	0.119676	0.131651	-0.143903	0.29625	0.13213	0	0	0.246698	-0.13489	-0.128467	0.533634	0.204869	0	0	-0.201094	0.141913	0.155967	0.518688	-0.158573	0.181381	1.47715	1.5708	0	0	0.833202	-0.323858	0.594095	1.03388	1.5708	0	0
5.11	1.13266	1.44761	0.357071	0.7558	1.16046	0.975812	0.115304	0.129912	-0.141058	0.296337	0.13643	0	0	0.25783	-0.133718	-0.131734	0.508413	0.198937	0	0	-0.202475	0.139487	0.159428	0.522792	-0.156723	0.182797	1.47538	1.5708	0	0	0.838442	-0.32487	0.596418	1.03051	1.5708	0	0
5.12	1.11751	1.44805	0.368637	0.755866	1.16584	0.975562	0.110776	0.128158	-0.138562	0.29676	0.140944	0	0	0.268256	-0.132786	-0.134817	0.483266	0.191493	0	0	-0.203829	0.137254	0.162698	0.526932	-0.154792	0.183568	1.47383	1.5708	0	0	0.843538	-0.325957	0.5988	1.0278	1.5708	0	0
5.13	1.10591	1.44834	0.376941	0.755829	1.17124	0.975259	0.105938	0.12646	-0.136305	0.297466	0.145427	0	0	0.278372	-0.132377	-0.139143	0.458676	0.182511	0	0	-0.205512	0.135475	0.165445	0.531587	-0.152955	0.18427	1.47245	1.5708	0	0	0.848371	-0.327208	0.600392	1.02595	1.5708	0	0
5.14	1.09671	1.4484	0.38322	0.755713	1.17664	0.974906	0.101086	0.124865	-0.134572	0.298469	0.15052	0	0	0.288195	-0.132385	-0.144288	0.434195	0.171189	0	0	-0.207317	0.13411	0.167635	0.536563	-0.151096	0.184919	1.47102	1.5708	0	0	0.85308	-0.328514	0.60169	1.02469	1.5708	0	0
5.15	1.0123	1.44762	0.472415	0.754545	1.18093	0.97403	0.109795	0.117845	-0.14087	0.304759	0.156808	0	0	0.304117	-0.13222	-0.176887	0.390239	0.147595	0	0	-0.201077	0.131172	0.16112	0.542634	-0.148906	0.184469	1.46899	1.5708	0	0	0.858866	-0.329133	0.602058	1.02324	1.5708	0	0
5.16	1.07675	1.44821	0.39787	0.7552	1.18763	0.973996	0.092248	0.121351	-0.132041	0.301821	0.161098	0	0	0.30685	-0.132288	-0.154195	0.384896	0.142979	0	0	-0.209833	0.131911	0.170696	0.545674	-0.147256	0.183919	1.46823	1.5708	0	0	0.86175	-0.330602	0.604354	1.02341	1.5708	0	0
5.17	1.06389	1.44687	0.408713	0.754815	1.19325	0.973382	0.0887527	0.12058	-0.130946	0.303461	0.165753	0	0	0.317042	-0.133293	-0.158701	0.361594	0.127817	0	0	-0.209647	0.132108	0.171528	0.54961	-0.146242	0.183078	1.4675	1.5708	0	0	0.86504	-0.331176	0.605032	1.02313	1.5708	0	0
5.18	1.05107	1.44543	0.419685	0.754392	1.19895	0.972729	0.0853131	0.119943	-0.129828	0.305198	0.170511	0	0	0.326155	-0.134075	-0.161877	0.336788	0.111054	0	0	-0.209105	0.132375	0.172165	0.553059	-0.145391	0.182102	1.46679	1.5708	0	0	0.867918	-0.331557	0.606046	1.02314	1.5708	0	0
5.19	1.03824	1.44369	0.431035	0.753889	1.20476	0.972014	0.0816114	0.119641	-0.128606	0.306181	0.17476	0	0	0.334715	-0.134907	-0.164095	0.311512	0.0952945	0	0	-0.208004	0.13306	0.172407	0.556244	-0.145114	0.182016	1.46595	1.5708	0	0	0.869978	-0.33177	0.606898	1.02356	1.5708	0	0
5.2	1.02694	1.44193	0.441241	0.753284	1.21069	0.971255	0.0771662	0.119482	-0.127191	0.30632	0.179039	0	0	0.342012	-0.135376	-0.16464	0.284952	0.0809621	0	0	-0.206611	0.133997	0.172064	0.559383	-0.145269	0.182686	1.46447	1.5708	0	0	0.871038	-0.331826	0.606033	1.02418	1.5708	0	0
5.21	1.00325	1.43829	0.463813	0.752536	1.21689	0.970337	0.0746715	0.120228	-0.125664	0.306068	0.18294	0	0	0.350777	-0.13651	-0.163993	0.257802	0.0690012	0	0	-0.20387	0.13724	0.164645	0.566625	-0.142063	0.191605	1.45924	1.5708	0	0	0.841892	-0.290477	0.310884	1.13403	0.895236	0	0
5.22	1.00829	1.43738	0.458646	0.751869	1.22301	0.96952	0.067324	0.12019	-0.125765	0.305955	0.188067	0	0	0.354034	-0.136804	-0.162641	0.230193	0.0585541	0	0	-0.202224	0.137277	0.170182	0.564566	-0.146892	0.184402	1.46132	1.5708	0	0	0.872286	-0.333031	0.607707	1.02789	1.5708	0	0
5.23	1.00062	1.43468	0.465473	0.751051	1.22932	0.968577	0.0622487	0.12073	-0.125053	0.305763	0.192748	0	0	0.358539	-0.137885	-0.160201	0.201979	0.0481853	0	0	-0.199665	0.139636	0.169128	0.566676	-0.147782	0.184572	1.46066	1.5708	0	0	0.870254	-0.331488	0.601272	1.0308	1.5708	0	0
5.24	0.995374	1.43193	0.469623	0.75022	1.23573	0.967597	0.0569672	0.12121	-0.124473	0.305929	0.197695	0	0	0.361479	-0.139258	-0.156698	0.172836	0.0380366	0	0	-0.19697	0.142097	0.168589	0.568158	-0.148853	0.184157	1.4603	1.5708	0	0	0.869338	-0.330948	0.599732	1.03238	1.5708	0	0
5.25	0.990609	1.42887	0.472835	0.749391	1.24227	0.966563	0.0518423	0.121842	-0.123418	0.306599	0.202994	0	0	0.363353	-0.141118	-0.151911	0.143138	0.0285127	0	0	-0.193823	0.144948	0.168522	0.569455	-0.15051	0.185035	1.45984	1.5708	0	0	0.867835	-0.33024	0.597475	1.03349	1.5708	0	0
5.26	0.984696	1.42548	0.476616	0.748571	1.24894	0.965451	0.0470351	0.122636	-0.121597	0.307585	0.20805	0	0	0.364693	-0.143538	-0.145821	0.113716	0.019882	0	0	-0.18997	0.148024	0.168927	0.570512	-0.152444	0.186708	1.45907	1.5708	0	0	0.865607	-0.329514	0.594331	1.03478	1.5708	0	0
5.27	0.978515	1.42206	0.480037	0.747758	1.25571	0.964293	0.0422933	0.123446	-0.119107	0.308765	0.212813	0	0	0.365221	-0.146462	-0.138861	0.0847916	0.0123774	0	0	-0.185774	0.150997	0.169854	0.571248	-0.153831	0.187559	1.45831	1.5708	0	0	0.863171	-0.328848	0.591724	1.03665	1.5708	0	0
5.28	0.97216	1.41865	0.482932	0.746946	1.2626	0.96309	0.0380927	0.123924	-0.116545	0.311189	0.218745	0	0	0.364648	-0.14981	-0.130638	0.0560624	0.0061452	0	0	-0.181328	0.153879	0.171439	0.571487	-0.154843	0.1871	1.45775	1.5708	0	0	0.860611	-0.328171	0.589686	1.03895	1.5708	0	0
5.29	0.966088	1.41541	0.484764	0.746137	1.26961	0.961861	0.0341834	0.124044	-0.11376	0.314732	0.225021	0	0	0.36289	-0.153568	-0.121886	0.0279467	0.0009286	0	0	-0.17684	0.156589	0.173784	0.571074	-0.156038	0.186609	1.45778	1.5708	0	0	0.858016	-0.327434	0.58828	1.04124	1.5708	0	0
5.3	0.961777	1.41245	0.484213	0.745313	1.27672	0.960642	0.03016	0.123919	-0.110347	0.31903	0.230646	0	0	0.360247	-0.157721	-0.11335	0.00138997	-0.00317893	0	0	-0.172607	0.159177	0.176683	0.570119	-0.157319	0.186435	1.45835	1.5708	0	0	0.855421	-0.326735	0.587441	1.04309	1.5708	0	0
5.31	0.965164	1.41194	0.47753	0.744709	1.28326	0.959435	0.0257673	0.127991	-0.0977751	0.326154	0.2303	0	0	0.365926	-0.159474	-0.105294	0	-0.00427674	0	0	-0.171101	0.159567	0.179043	0.569482	-0.157393	0.188203	1.45915	1.5708	0	0	0.853369	-0.324616	0.587628	1.04501	1.5708	0	0
5.32	0.969957	1.41159	0.468077	0.743817	1.29028	0.958547	0.0200968	0.125941	-0.0936122	0.332133	0.235622	0	0	0.369922	-0.163677	-0.10399	0	-0.00221148	0	0	-0.170008	0.160166	0.182179	0.568351	-0.158208	0.187756	1.45911	1.5708	0	0	0.850737	-0.323833	0.585937	1.04685	1.5708	0	0
5.33	0.975249	1.41214	0.457828	0.742885	1.29741	0.957774	0.0139908	0.122823	-0.0892463	0.338483	0.240518	0	0	0.371964	-0.167006	-0.103727	0	-0.000240568	0	0	-0.16927	0.159888	0.185378	0.566964	-0.158845	0.186994	1.45872	1.5708	0	0	0.847581	-0.323164	0.584478	1.04933	1.5708	0	0
5.34	0.981011	1.41335	0.447015	0.741834	1.30465	0.957095	0.00766257	0.11889	-0.0846484	0.345208	0.244906	0	0	0.372253	-0.169574	-0.104662	0	0.00248313	0	0	-0.168861	0.159123	0.188421	0.565199	-0.159614	0.186075	1.45893	1.5708	0	0	0.843961	-0.322431	0.582206	1.05207	1.5708	0	0
5.35	0.985515	1.41518	0.437596	0.74067	1.31205	0.956492	0.00159071	0.113954	-0.0806916	0.352779	0.248962	0	0	0.3711	-0.171063	-0.107262	0	0.00601051	0	0	-0.168183	0.157796	0.190927	0.562694	-0.160391	0.185356	1.45981	1.5708	0	0	0.839813	-0.321603	0.579789	1.05442	1.5708	0	0
